<?xml version="1.0" encoding="UTF-8"?>
<!DOCTYPE svg PUBLIC "-//W3C//DTD SVG 1.1//EN" "http://www.w3.org/Graphics/SVG/1.1/DTD/svg11.dtd">
<svg xmlns="http://www.w3.org/2000/svg" version="1.1" width="962px" height="961px" style="shape-rendering:geometricPrecision; text-rendering:geometricPrecision; image-rendering:optimizeQuality; fill-rule:evenodd; clip-rule:evenodd" xmlns:xlink="http://www.w3.org/1999/xlink">
<g><path style="opacity:1" fill="#000000" d="M -0.5,-0.5 C 320.167,-0.5 640.833,-0.5 961.5,-0.5C 961.5,319.833 961.5,640.167 961.5,960.5C 640.833,960.5 320.167,960.5 -0.5,960.5C -0.5,640.167 -0.5,319.833 -0.5,-0.5 Z"/></g>
<g><path style="opacity:1" fill="#fcfdfd" d="M 722.5,475.5 C 712.582,476.474 702.582,476.807 692.5,476.5C 692.5,401.833 692.5,327.167 692.5,252.5C 644.833,252.5 597.167,252.5 549.5,252.5C 541.68,225.863 528.847,201.863 511,180.5C 499.955,168.953 488.455,157.953 476.5,147.5C 448.831,169.321 427.331,195.988 412,227.5C 408.459,235.623 405.626,243.957 403.5,252.5C 356.664,252.168 309.997,252.501 263.5,253.5C 262.501,327.665 262.167,401.998 262.5,476.5C 253.167,476.5 243.833,476.5 234.5,476.5C 234.5,393.833 234.5,311.167 234.5,228.5C 234.427,226.973 235.094,225.973 236.5,225.5C 287.961,224.842 339.294,224.175 390.5,223.5C 400.902,204.261 412.735,185.927 426,168.5C 441.567,148.761 458.067,129.761 475.5,111.5C 510.388,144.204 539.388,181.37 562.5,223C 614.916,223.009 667.25,223.675 719.5,225C 720.333,225.833 721.167,226.667 722,227.5C 722.5,310.166 722.667,392.833 722.5,475.5 Z"/></g>
<g><path style="opacity:1" fill="#f6f8f9" d="M 468.5,182.5 C 469.239,182.369 469.906,182.536 470.5,183C 466.918,188.668 463.752,194.501 461,200.5C 458.976,205.732 457.476,211.065 456.5,216.5C 443.471,226.556 437.804,239.89 439.5,256.5C 439.333,277.169 439.5,297.836 440,318.5C 441.683,328.449 442.85,338.449 443.5,348.5C 439.853,351.811 436.187,355.145 432.5,358.5C 431.667,356.5 430.833,354.5 430,352.5C 425.229,325.02 423.729,297.353 425.5,269.5C 426.957,264.402 427.624,259.069 427.5,253.5C 429.81,241.737 433.644,230.404 439,219.5C 447.176,205.826 457.01,193.493 468.5,182.5 Z"/></g>
<g><path style="opacity:1" fill="#c9e7f9" d="M 505.5,209.5 C 502.835,212.154 499.835,214.487 496.5,216.5C 483.085,208.513 469.752,208.513 456.5,216.5C 457.476,211.065 458.976,205.732 461,200.5C 463.752,194.501 466.918,188.668 470.5,183C 469.906,182.536 469.239,182.369 468.5,182.5C 470.629,178.835 473.629,176.668 477.5,176C 488.389,185.996 497.723,197.163 505.5,209.5 Z"/></g>
<g><path style="opacity:1" fill="#040508" d="M 496.5,216.5 C 500.5,219.833 504.167,223.5 507.5,227.5C 513.156,237.005 514.989,247.339 513,258.5C 511.103,263.388 508.937,268.055 506.5,272.5C 505.5,272.833 504.833,273.5 504.5,274.5C 499.121,281.197 492.121,285.364 483.5,287C 460.221,288.886 445.554,278.719 439.5,256.5C 437.804,239.89 443.471,226.556 456.5,216.5C 469.752,208.513 483.085,208.513 496.5,216.5 Z"/></g>
<g><path style="opacity:1" fill="#758b92" d="M 390.5,223.5 C 339.294,224.175 287.961,224.842 236.5,225.5C 236.611,224.883 236.944,224.383 237.5,224C 288.499,223.5 339.499,223.333 390.5,223.5 Z"/></g>
<g><path style="opacity:1" fill="#293b8c" d="M 505.5,209.5 C 510.09,214.335 513.423,220.002 515.5,226.5C 516.824,232.688 517.824,238.688 518.5,244.5C 517.069,244.881 516.236,245.881 516,247.5C 515.826,252.351 515.326,257.018 514.5,261.5C 514.222,254.621 514.555,247.788 515.5,241C 514.815,238.205 514.315,235.372 514,232.5C 512.303,231.636 511.137,230.303 510.5,228.5C 509.675,227.614 508.675,227.281 507.5,227.5C 504.167,223.5 500.5,219.833 496.5,216.5C 499.835,214.487 502.835,212.154 505.5,209.5 Z"/></g>
<g><path style="opacity:1" fill="#fafbfb" d="M 468.5,227.5 C 481.916,225.289 491.416,230.289 497,242.5C 499.503,258.813 492.67,268.147 476.5,270.5C 459.546,267.628 452.713,257.628 456,240.5C 459.025,234.977 463.191,230.644 468.5,227.5 Z"/></g>
<g><path style="opacity:1" fill="#23287a" d="M 518.5,244.5 C 521.905,255.305 524.571,265.971 526.5,276.5C 525.094,289.353 524.094,302.187 523.5,315C 524.763,318.606 524.43,322.106 522.5,325.5C 521.766,326.878 521.099,328.378 520.5,330C 522.103,333.218 521.603,336.051 519,338.5C 517.554,333.355 517.054,328.021 517.5,322.5C 512.5,322.5 507.5,322.5 502.5,322.5C 502.162,327.186 501.995,331.853 502,336.5C 504.642,338.059 506.975,337.725 509,335.5C 510.136,338.096 510.969,340.763 511.5,343.5C 506.95,344.116 502.95,342.949 499.5,340C 496.832,339.433 494.166,338.933 491.5,338.5C 491.334,333.489 491.501,328.489 492,323.5C 493.011,322.663 494.178,322.33 495.5,322.5C 495.799,320.027 496.799,317.86 498.5,316C 497.057,313.922 497.724,313.089 500.5,313.5C 500.5,311.167 500.5,308.833 500.5,306.5C 500.5,306.167 500.5,305.833 500.5,305.5C 502.379,304.659 504.379,304.325 506.5,304.5C 507.251,293.36 508.418,282.36 510,271.5C 512.906,268.893 514.406,265.56 514.5,261.5C 515.326,257.018 515.826,252.351 516,247.5C 516.236,245.881 517.069,244.881 518.5,244.5 Z"/></g>
<g><path style="opacity:1" fill="#91a4b4" d="M 427.5,253.5 C 427.624,259.069 426.957,264.402 425.5,269.5C 425.527,263.949 426.194,258.616 427.5,253.5 Z"/></g>
<g><path style="opacity:1" fill="#7795cf" d="M 506.5,272.5 C 507.833,276.833 507.833,281.167 506.5,285.5C 507.08,281.351 506.414,277.684 504.5,274.5C 504.833,273.5 505.5,272.833 506.5,272.5 Z"/></g>
<g><path style="opacity:1" fill="#233679" d="M 507.5,227.5 C 508.675,227.281 509.675,227.614 510.5,228.5C 511.137,230.303 512.303,231.636 514,232.5C 514.315,235.372 514.815,238.205 515.5,241C 514.555,247.788 514.222,254.621 514.5,261.5C 514.406,265.56 512.906,268.893 510,271.5C 508.418,282.36 507.251,293.36 506.5,304.5C 504.379,304.325 502.379,304.659 500.5,305.5C 503.387,299.039 505.387,292.372 506.5,285.5C 507.833,281.167 507.833,276.833 506.5,272.5C 508.937,268.055 511.103,263.388 513,258.5C 514.989,247.339 513.156,237.005 507.5,227.5 Z"/></g>
<g><path style="opacity:1" fill="#8998a0" d="M 641.5,291.5 C 641.5,291.833 641.5,292.167 641.5,292.5C 617.328,292.169 593.328,292.502 569.5,293.5C 568.957,293.44 568.624,293.107 568.5,292.5C 592.824,291.5 617.158,291.167 641.5,291.5 Z"/></g>
<g><path style="opacity:1" fill="#fefefe" d="M 396.5,386.5 C 397.498,413.328 397.831,440.328 397.5,467.5C 450.336,467.832 503.003,467.499 555.5,466.5C 555.333,440.165 555.5,413.831 556,387.5C 562.971,394.109 568.471,401.775 572.5,410.5C 580.729,394.923 585.229,378.256 586,360.5C 588.049,336.229 582.549,313.896 569.5,293.5C 593.328,292.502 617.328,292.169 641.5,292.5C 642.165,423.838 641.498,554.838 639.5,685.5C 611.551,668.057 583.717,650.391 556,632.5C 555.5,603.169 555.333,573.835 555.5,544.5C 503.003,543.501 450.336,543.168 397.5,543.5C 397.5,573.5 397.5,603.5 397.5,633.5C 369.5,651.5 341.5,669.5 313.5,687.5C 312.5,556.001 312.167,424.334 312.5,292.5C 335.994,291.502 359.661,291.169 383.5,291.5C 380.301,298.228 376.801,304.895 373,311.5C 362.723,341.366 363.389,371.033 375,400.5C 376.61,404.061 378.443,407.394 380.5,410.5C 384.707,401.649 390.041,393.649 396.5,386.5 Z"/></g>
<g><path style="opacity:1" fill="#f5f7f8" d="M 410.5,329.5 C 406.183,331.653 403.016,334.986 401,339.5C 398.207,348.633 397.04,357.966 397.5,367.5C 394.545,370.116 391.545,372.782 388.5,375.5C 382.222,355.623 385.055,337.289 397,320.5C 400.722,316.275 404.888,312.608 409.5,309.5C 410.497,316.134 410.83,322.8 410.5,329.5 Z"/></g>
<g><path style="opacity:1" fill="#cde9fb" d="M 439.5,256.5 C 445.554,278.719 460.221,288.886 483.5,287C 492.121,285.364 499.121,281.197 504.5,274.5C 506.414,277.684 507.08,281.351 506.5,285.5C 505.387,292.372 503.387,299.039 500.5,305.5C 500.5,305.833 500.5,306.167 500.5,306.5C 496.812,310.854 492.812,314.854 488.5,318.5C 488.5,313.5 488.5,308.5 488.5,303.5C 481.167,303.5 473.833,303.5 466.5,303.5C 465.791,302.596 464.791,302.263 463.5,302.5C 463.5,314.5 463.5,326.5 463.5,338.5C 455.968,340.266 449.301,343.599 443.5,348.5C 442.85,338.449 441.683,328.449 440,318.5C 439.5,297.836 439.333,277.169 439.5,256.5 Z"/></g>
<g><path style="opacity:1" fill="#315782" d="M 466.5,303.5 C 464.841,314.964 463.841,326.631 463.5,338.5C 463.5,326.5 463.5,314.5 463.5,302.5C 464.791,302.263 465.791,302.596 466.5,303.5 Z"/></g>
<g><path style="opacity:1" fill="#1b286a" d="M 515.5,226.5 C 518.518,231.027 520.684,236.027 522,241.5C 524.419,249.678 526.085,258.011 527,266.5C 529.296,296.619 526.796,326.286 519.5,355.5C 519.167,356.167 518.833,356.833 518.5,357.5C 515.66,354.265 512.66,351.265 509.5,348.5C 511.679,349.059 513.846,349.726 516,350.5C 516.5,350.167 517,349.833 517.5,349.5C 518.167,346.833 518.833,344.167 519.5,341.5C 518.975,340.808 518.308,340.308 517.5,340C 519.134,339.506 520.801,339.34 522.5,339.5C 522.5,334.833 522.5,330.167 522.5,325.5C 524.43,322.106 524.763,318.606 523.5,315C 524.094,302.187 525.094,289.353 526.5,276.5C 524.571,265.971 521.905,255.305 518.5,244.5C 517.824,238.688 516.824,232.688 515.5,226.5 Z"/></g>
<g><path style="opacity:1" fill="#d7effc" d="M 565.5,339.5 C 565.619,350.518 565.286,361.518 564.5,372.5C 564.483,374.028 563.816,374.528 562.5,374C 555.934,367.549 548.268,362.883 539.5,360C 538.978,359.439 538.645,358.772 538.5,358C 539.537,352.204 540.37,346.371 541,340.5C 541.168,330.151 541.668,319.817 542.5,309.5C 554.529,316.256 562.196,326.256 565.5,339.5 Z"/></g>
<g><path style="opacity:1" fill="#292e78" d="M 500.5,306.5 C 500.5,308.833 500.5,311.167 500.5,313.5C 497.724,313.089 497.057,313.922 498.5,316C 496.799,317.86 495.799,320.027 495.5,322.5C 494.178,322.33 493.011,322.663 492,323.5C 491.501,328.489 491.334,333.489 491.5,338.5C 494.166,338.933 496.832,339.433 499.5,340C 502.95,342.949 506.95,344.116 511.5,343.5C 510.969,340.763 510.136,338.096 509,335.5C 506.975,337.725 504.642,338.059 502,336.5C 501.995,331.853 502.162,327.186 502.5,322.5C 507.5,322.5 512.5,322.5 517.5,322.5C 517.054,328.021 517.554,333.355 519,338.5C 521.603,336.051 522.103,333.218 520.5,330C 521.099,328.378 521.766,326.878 522.5,325.5C 522.5,330.167 522.5,334.833 522.5,339.5C 520.801,339.34 519.134,339.506 517.5,340C 518.308,340.308 518.975,340.808 519.5,341.5C 518.833,344.167 518.167,346.833 517.5,349.5C 517,349.833 516.5,350.167 516,350.5C 513.846,349.726 511.679,349.059 509.5,348.5C 503.165,344.666 496.499,341.333 489.5,338.5C 488.503,331.866 488.17,325.2 488.5,318.5C 492.812,314.854 496.812,310.854 500.5,306.5 Z"/></g>
<g><path style="opacity:1" fill="#d2effc" d="M 410.5,329.5 C 410.835,338.188 411.502,346.855 412.5,355.5C 412.167,356.833 411.833,358.167 411.5,359.5C 406.806,362.179 402.139,364.845 397.5,367.5C 397.04,357.966 398.207,348.633 401,339.5C 403.016,334.986 406.183,331.653 410.5,329.5 Z"/></g>
<g><path style="opacity:1" fill="#7ea4c1" d="M 565.5,339.5 C 566.166,343.653 566.499,347.987 566.5,352.5C 566.654,359.398 565.987,366.064 564.5,372.5C 565.286,361.518 565.619,350.518 565.5,339.5 Z"/></g>
<g><path style="opacity:1" fill="#a60006" d="M 477.5,353.5 C 483.861,353.684 489.194,356.018 493.5,360.5C 491.4,360.523 489.567,359.856 488,358.5C 487.228,358.645 486.561,358.978 486,359.5C 484.453,357.113 482.287,355.78 479.5,355.5C 478.5,355.167 477.833,354.5 477.5,353.5 Z"/></g>
<g><path style="opacity:1" fill="#fc6f03" d="M 461.5,358.5 C 461.611,359.117 461.944,359.617 462.5,360C 461.167,361.333 459.833,362.667 458.5,364C 461.148,365.649 463.481,367.649 465.5,370C 465.05,371.285 464.383,372.452 463.5,373.5C 466.086,374.48 468.753,374.813 471.5,374.5C 470.744,379.187 472.244,382.853 476,385.5C 476.13,390.055 475.13,390.389 473,386.5C 471.881,390.36 470.381,390.86 468.5,388C 467.552,387.517 466.552,387.351 465.5,387.5C 465.489,389.547 465.156,391.547 464.5,393.5C 464.833,394.167 465.167,394.833 465.5,395.5C 466.243,394.092 467.077,392.759 468,391.5C 468.623,395.691 470.29,399.357 473,402.5C 473.822,405.117 474.322,407.784 474.5,410.5C 471.74,416.356 468.74,422.023 465.5,427.5C 461.48,420.428 458.814,412.761 457.5,404.5C 457.82,401.102 457.487,397.768 456.5,394.5C 455.893,394.624 455.56,394.957 455.5,395.5C 451.885,400.955 448.052,406.288 444,411.5C 443.59,410.099 443.09,408.766 442.5,407.5C 442.289,398.8 442.623,390.133 443.5,381.5C 446.561,371.45 452.561,363.783 461.5,358.5 Z"/></g>
<g><path style="opacity:1" fill="#9c0002" d="M 500.5,367.5 C 504.43,371.021 507.097,375.355 508.5,380.5C 508.5,381.833 508.5,383.167 508.5,384.5C 506.226,378.735 503.56,373.069 500.5,367.5 Z"/></g>
<g><path style="opacity:1" fill="#32404b" d="M 549.5,252.5 C 597.167,252.5 644.833,252.5 692.5,252.5C 692.5,327.167 692.5,401.833 692.5,476.5C 692.5,547.5 692.5,618.5 692.5,689.5C 691.5,544.334 691.167,399.001 691.5,253.5C 643.997,253.832 596.664,253.499 549.5,252.5 Z"/></g>
<g><path style="opacity:1" fill="#fd6700" d="M 477.5,353.5 C 476.957,353.56 476.624,353.893 476.5,354.5C 478.128,358.008 479.294,361.675 480,365.5C 481.654,381.069 479.821,396.069 474.5,410.5C 474.322,407.784 473.822,405.117 473,402.5C 470.29,399.357 468.623,395.691 468,391.5C 467.077,392.759 466.243,394.092 465.5,395.5C 465.167,394.833 464.833,394.167 464.5,393.5C 465.156,391.547 465.489,389.547 465.5,387.5C 466.552,387.351 467.552,387.517 468.5,388C 470.381,390.86 471.881,390.36 473,386.5C 475.13,390.389 476.13,390.055 476,385.5C 472.244,382.853 470.744,379.187 471.5,374.5C 468.753,374.813 466.086,374.48 463.5,373.5C 464.383,372.452 465.05,371.285 465.5,370C 463.481,367.649 461.148,365.649 458.5,364C 459.833,362.667 461.167,361.333 462.5,360C 461.944,359.617 461.611,359.117 461.5,358.5C 466.286,354.407 471.619,352.74 477.5,353.5 Z"/></g>
<g><path style="opacity:1" fill="#610000" d="M 508.5,380.5 C 509.6,382.277 510.434,384.277 511,386.5C 511.819,392.681 511.653,398.681 510.5,404.5C 510.822,398.642 510.489,392.975 509.5,387.5C 509.737,386.209 509.404,385.209 508.5,384.5C 508.5,383.167 508.5,381.833 508.5,380.5 Z"/></g>
<g><path style="opacity:1" fill="#b63e0a" d="M 443.5,381.5 C 442.623,390.133 442.289,398.8 442.5,407.5C 441.344,400.011 441.178,392.345 442,384.5C 442.232,383.263 442.732,382.263 443.5,381.5 Z"/></g>
<g><path style="opacity:1" fill="#e10000" d="M 479.5,355.5 C 482.287,355.78 484.453,357.113 486,359.5C 486.561,358.978 487.228,358.645 488,358.5C 489.567,359.856 491.4,360.523 493.5,360.5C 496.855,361.855 499.189,364.189 500.5,367.5C 503.56,373.069 506.226,378.735 508.5,384.5C 509.404,385.209 509.737,386.209 509.5,387.5C 509.553,393.196 509.22,398.862 508.5,404.5C 504.372,403.871 502.038,401.537 501.5,397.5C 497.995,396.876 495.162,397.876 493,400.5C 492.228,400.355 491.561,400.022 491,399.5C 491.005,404.53 491.505,409.53 492.5,414.5C 491.314,418.26 489.981,421.926 488.5,425.5C 488.572,421.374 489.239,417.374 490.5,413.5C 488.833,413.5 487.167,413.5 485.5,413.5C 485.769,411.571 485.269,409.905 484,408.5C 482.851,411.018 482.018,413.684 481.5,416.5C 479.955,417.452 478.288,417.785 476.5,417.5C 476.449,415.43 477.115,413.597 478.5,412C 478.056,410.238 477.556,410.405 477,412.5C 476.333,411.167 476.333,409.833 477,408.5C 477.741,407.359 478.575,407.359 479.5,408.5C 480.39,405.726 480.39,402.893 479.5,400C 482.154,385.158 482.154,370.325 479.5,355.5 Z"/></g>
<g><path style="opacity:1" fill="#33464c" d="M 312.5,292.5 C 312.167,424.334 312.5,556.001 313.5,687.5C 313.44,688.043 313.107,688.376 312.5,688.5C 311.168,556.334 311.168,424.334 312.5,292.5 Z"/></g>
<g><path style="opacity:1" fill="#510804" d="M 455.5,395.5 C 455.56,394.957 455.893,394.624 456.5,394.5C 457.487,397.768 457.82,401.102 457.5,404.5C 456.833,401.5 456.167,398.5 455.5,395.5 Z"/></g>
<g><path style="opacity:1" fill="#bf0001" d="M 509.5,387.5 C 510.489,392.975 510.822,398.642 510.5,404.5C 510.5,405.5 510.5,406.5 510.5,407.5C 509.292,408.234 507.959,408.567 506.5,408.5C 503.735,405.34 500.735,402.34 497.5,399.5C 496.107,404.631 494.44,409.631 492.5,414.5C 491.505,409.53 491.005,404.53 491,399.5C 491.561,400.022 492.228,400.355 493,400.5C 495.162,397.876 497.995,396.876 501.5,397.5C 502.038,401.537 504.372,403.871 508.5,404.5C 509.22,398.862 509.553,393.196 509.5,387.5 Z"/></g>
<g><path style="opacity:1" fill="#6e0011" d="M 510.5,407.5 C 509.914,412.141 508.581,412.474 506.5,408.5C 507.959,408.567 509.292,408.234 510.5,407.5 Z"/></g>
<g><path style="opacity:1" fill="#f20500" d="M 477.5,353.5 C 477.833,354.5 478.5,355.167 479.5,355.5C 482.154,370.325 482.154,385.158 479.5,400C 480.39,402.893 480.39,405.726 479.5,408.5C 478.575,407.359 477.741,407.359 477,408.5C 476.333,409.833 476.333,411.167 477,412.5C 477.556,410.405 478.056,410.238 478.5,412C 477.115,413.597 476.449,415.43 476.5,417.5C 478.288,417.785 479.955,417.452 481.5,416.5C 482.018,413.684 482.851,411.018 484,408.5C 485.269,409.905 485.769,411.571 485.5,413.5C 487.167,413.5 488.833,413.5 490.5,413.5C 489.239,417.374 488.572,421.374 488.5,425.5C 486.534,427.42 484.534,429.42 482.5,431.5C 482.077,435.604 480.743,439.271 478.5,442.5C 477.167,442.5 475.833,442.5 474.5,442.5C 474.785,440.712 474.452,439.045 473.5,437.5C 470.917,435.251 468.583,432.918 466.5,430.5C 465.89,429.609 465.557,428.609 465.5,427.5C 468.74,422.023 471.74,416.356 474.5,410.5C 479.821,396.069 481.654,381.069 480,365.5C 479.294,361.675 478.128,358.008 476.5,354.5C 476.624,353.893 476.957,353.56 477.5,353.5 Z"/></g>
<g><path style="opacity:1" fill="#bd0002" d="M 488.5,425.5 C 486.11,429.953 483.944,434.619 482,439.5C 480.961,440.71 479.794,441.71 478.5,442.5C 480.743,439.271 482.077,435.604 482.5,431.5C 484.534,429.42 486.534,427.42 488.5,425.5 Z"/></g>
<g><path style="opacity:1" fill="#c10007" d="M 466.5,430.5 C 468.583,432.918 470.917,435.251 473.5,437.5C 474.452,439.045 474.785,440.712 474.5,442.5C 475.833,442.5 477.167,442.5 478.5,442.5C 477.686,444.273 476.352,444.773 474.5,444C 471.209,439.874 468.542,435.374 466.5,430.5 Z"/></g>
<g><path style="opacity:1" fill="#2e3e54" d="M 396.5,386.5 C 396.56,385.957 396.893,385.624 397.5,385.5C 398.5,412.492 398.833,439.492 398.5,466.5C 450.833,466.5 503.167,466.5 555.5,466.5C 503.003,467.499 450.336,467.832 397.5,467.5C 397.831,440.328 397.498,413.328 396.5,386.5 Z"/></g>
<g><path style="opacity:1" fill="#657a94" d="M 641.5,291.5 C 642.5,422.999 642.833,554.666 642.5,686.5C 641.209,686.737 640.209,686.404 639.5,685.5C 641.498,554.838 642.165,423.838 641.5,292.5C 641.5,292.167 641.5,291.833 641.5,291.5 Z"/></g>
<g><path style="opacity:1" fill="#303f50" d="M 555.5,544.5 C 503.167,544.5 450.833,544.5 398.5,544.5C 398.831,574.338 398.498,604.005 397.5,633.5C 397.5,603.5 397.5,573.5 397.5,543.5C 450.336,543.168 503.003,543.501 555.5,544.5 Z"/></g>
<g><path style="opacity:1" fill="#191c26" d="M 403.5,252.5 C 357.336,253.499 311.003,253.832 264.5,253.5C 264.833,399.334 264.5,545.001 263.5,690.5C 263.5,544.833 263.5,399.167 263.5,253.5C 309.997,252.501 356.664,252.168 403.5,252.5 Z"/></g>
<g><path style="opacity:1" fill="#ad1408" d="M 452.5,633.5 C 454.203,618.878 454.703,604.212 454,589.5C 453.617,590.056 453.117,590.389 452.5,590.5C 452.655,587.391 453.322,584.391 454.5,581.5C 456.171,599.075 455.504,616.409 452.5,633.5 Z"/></g>
<g><path style="opacity:1" fill="#901e13" d="M 497.5,595.5 C 496.842,594.602 496.176,593.602 495.5,592.5C 494.824,593.602 494.158,594.602 493.5,595.5C 495.48,583.508 496.813,583.508 497.5,595.5 Z"/></g>
<g><path style="opacity:1" fill="#def4fc" d="M 722.5,475.5 C 722.667,547.167 722.5,618.834 722,690.5C 721.167,691.333 720.333,692.167 719.5,693C 711.167,693.667 702.833,693.667 694.5,693C 693.177,692.184 692.511,691.017 692.5,689.5C 692.5,618.5 692.5,547.5 692.5,476.5C 702.582,476.807 712.582,476.474 722.5,475.5 Z"/></g>
<g><path style="opacity:1" fill="#931809" d="M 449.5,604.5 C 449.483,606.565 449.15,608.565 448.5,610.5C 448.011,611.995 447.345,613.329 446.5,614.5C 446.723,610.838 447.723,607.505 449.5,604.5 Z"/></g>
<g><path style="opacity:1" fill="#f85a01" d="M 443.5,650.5 C 443.708,648.08 443.374,645.747 442.5,643.5C 444.749,641.866 445.082,639.866 443.5,637.5C 445.809,634.195 445.643,630.862 443,627.5C 442.623,628.942 441.79,629.942 440.5,630.5C 441.987,624.88 443.987,619.547 446.5,614.5C 447.345,613.329 448.011,611.995 448.5,610.5C 449.117,610.389 449.617,610.056 450,609.5C 450.667,615.5 450.667,621.5 450,627.5C 448.016,635.274 445.849,642.941 443.5,650.5 Z"/></g>
<g><path style="opacity:1" fill="#d0e7f1" d="M 234.5,228.5 C 234.5,311.167 234.5,393.833 234.5,476.5C 243.833,476.5 253.167,476.5 262.5,476.5C 262.167,401.998 262.501,327.665 263.5,253.5C 263.5,399.167 263.5,544.833 263.5,690.5C 262.662,690.842 262.328,691.508 262.5,692.5C 254.252,693.469 245.918,693.802 237.5,693.5C 235.864,692.251 234.697,690.584 234,688.5C 233.167,534.999 233.334,381.666 234.5,228.5 Z"/></g>
<g><path style="opacity:1" fill="#fd0500" d="M 452.5,633.5 C 446.242,686.614 428.409,735.281 399,779.5C 389.258,792.911 378.425,805.411 366.5,817C 369.413,817.048 372.079,816.215 374.5,814.5C 374.047,815.458 373.381,816.292 372.5,817C 375.039,817.796 377.372,817.629 379.5,816.5C 400.392,809.889 419.059,799.389 435.5,785C 439.799,781.213 443.466,777.046 446.5,772.5C 447.5,772.167 448.167,771.5 448.5,770.5C 458.829,759.827 467.162,747.827 473.5,734.5C 475.093,729.98 477.26,725.647 480,721.5C 481.9,713.794 484.566,706.46 488,699.5C 490.141,686.095 492.474,672.761 495,659.5C 495.667,641.833 495.667,624.167 495,606.5C 494.667,605.5 494.333,604.5 494,603.5C 493.292,604.381 492.458,605.047 491.5,605.5C 491.788,602.061 492.454,598.728 493.5,595.5C 494.158,594.602 494.824,593.602 495.5,592.5C 496.176,593.602 496.842,594.602 497.5,595.5C 498.707,611.31 501.374,626.976 505.5,642.5C 505.187,645.247 505.52,647.914 506.5,650.5C 509.834,654.823 511.334,659.823 511,665.5C 511.414,665.043 511.914,664.709 512.5,664.5C 513.298,666.078 513.798,667.744 514,669.5C 514.342,667.381 515.175,667.047 516.5,668.5C 517.674,669.514 518.34,670.847 518.5,672.5C 518.079,675.657 519.245,677.99 522,679.5C 523.526,684.706 526.36,689.039 530.5,692.5C 530.869,696.843 533.202,699.176 537.5,699.5C 539.547,701.55 541.214,703.883 542.5,706.5C 542.758,711.154 544.925,714.488 549,716.5C 549.49,717.793 549.657,719.127 549.5,720.5C 550.5,720.5 551.5,720.5 552.5,720.5C 554.915,723.34 556.248,726.673 556.5,730.5C 553.119,764.589 539.952,794.255 517,819.5C 503.299,834.537 487.799,847.37 470.5,858C 432.786,878.007 392.453,889.34 349.5,892C 302.963,894.756 257.63,888.756 213.5,874C 204.997,870.001 196.331,866.501 187.5,863.5C 181.85,859.672 175.85,856.338 169.5,853.5C 168.289,854.274 168.289,855.107 169.5,856C 168.207,856.49 166.873,856.657 165.5,856.5C 166.231,854.401 166.231,852.401 165.5,850.5C 162.594,847.914 159.26,846.248 155.5,845.5C 152.448,842.785 149.115,840.451 145.5,838.5C 143.833,837.5 142.5,836.167 141.5,834.5C 141.5,833.167 142.167,832.5 143.5,832.5C 159.672,842.535 177.005,849.535 195.5,853.5C 197.515,854.924 199.848,855.59 202.5,855.5C 216.46,857.627 230.46,857.96 244.5,856.5C 249.414,856.638 254.081,855.972 258.5,854.5C 261.152,854.59 263.485,853.924 265.5,852.5C 269.162,852.277 272.495,851.277 275.5,849.5C 286.567,844.462 296.9,838.128 306.5,830.5C 310.167,828.833 312.833,826.167 314.5,822.5C 320.027,815.317 324.694,807.651 328.5,799.5C 329.924,797.485 330.59,795.152 330.5,792.5C 330.5,791.167 330.5,789.833 330.5,788.5C 321.394,791.873 312.394,795.707 303.5,800C 294.342,811.25 283.008,819.584 269.5,825C 243.442,834.557 216.775,837.057 189.5,832.5C 188.909,831.849 188.243,831.182 187.5,830.5C 180.325,829.439 173.325,827.772 166.5,825.5C 146.003,818.409 128.669,806.576 114.5,790C 113.552,789.517 112.552,789.351 111.5,789.5C 110.628,801.932 112.461,813.932 117,825.5C 121.507,836.522 127.007,846.855 133.5,856.5C 133.5,858.5 133.5,860.5 133.5,862.5C 135.144,862.286 136.644,862.62 138,863.5C 138.155,865.856 138.155,868.189 138,870.5C 139.079,868.606 140.413,868.273 142,869.5C 140.698,873.283 139.864,877.283 139.5,881.5C 138.5,881.5 137.5,881.5 136.5,881.5C 135.833,881.5 135.167,881.5 134.5,881.5C 94.1793,844.206 74.8459,798.206 76.5,743.5C 78.0538,739.433 78.7204,735.1 78.5,730.5C 80.2766,727.495 81.2766,724.162 81.5,720.5C 83.0739,718.898 83.7406,716.898 83.5,714.5C 88.4064,701.021 96.0731,689.354 106.5,679.5C 109.59,678.83 111.257,679.997 111.5,683C 108.665,698.236 107.998,713.402 109.5,728.5C 117.435,758.604 135.435,780.437 163.5,794C 172.442,797.151 181.442,799.984 190.5,802.5C 193.903,803.925 197.57,804.758 201.5,805C 226.348,808.293 250.015,804.626 272.5,794C 276.167,791.167 279.833,788.333 283.5,785.5C 285.071,781.642 284.071,778.642 280.5,776.5C 280.672,775.508 280.338,774.842 279.5,774.5C 278.826,772.976 277.826,771.642 276.5,770.5C 270.255,770.349 264.588,768.516 259.5,765C 264.467,765.161 269.467,765.328 274.5,765.5C 301.231,767.168 327.231,763.001 352.5,753C 355.672,751.303 358.672,749.47 361.5,747.5C 380.787,737.723 397.287,724.389 411,707.5C 424.627,690.052 435.461,671.052 443.5,650.5C 445.849,642.941 448.016,635.274 450,627.5C 450.667,621.5 450.667,615.5 450,609.5C 449.617,610.056 449.117,610.389 448.5,610.5C 449.15,608.565 449.483,606.565 449.5,604.5C 450.191,599.74 451.191,595.074 452.5,590.5C 453.117,590.389 453.617,590.056 454,589.5C 454.703,604.212 454.203,618.878 452.5,633.5 Z"/></g>
<g><path style="opacity:1" fill="#b5420b" d="M 484.5,641.5 C 485.035,646.312 484.035,650.645 481.5,654.5C 482.34,650.015 483.34,645.681 484.5,641.5 Z"/></g>
<g><path style="opacity:1" fill="#56291e" d="M 147.5,658.5 C 150.304,657.362 153.304,657.195 156.5,658C 157.151,659.308 156.485,660.141 154.5,660.5C 152.721,658.656 150.388,657.99 147.5,658.5 Z"/></g>
<g><path style="opacity:1" fill="#da0b01" d="M 505.5,642.5 C 509.148,651.09 512.814,659.757 516.5,668.5C 515.175,667.047 514.342,667.381 514,669.5C 513.798,667.744 513.298,666.078 512.5,664.5C 511.914,664.709 511.414,665.043 511,665.5C 511.334,659.823 509.834,654.823 506.5,650.5C 505.52,647.914 505.187,645.247 505.5,642.5 Z"/></g>
<g><path style="opacity:1" fill="#f06f0a" d="M 147.5,658.5 C 150.388,657.99 152.721,658.656 154.5,660.5C 146.023,664.639 138.689,670.306 132.5,677.5C 131.848,673.44 133.515,671.44 137.5,671.5C 137.328,669.508 137.995,667.842 139.5,666.5C 139.291,665.914 138.957,665.414 138.5,665C 133.576,664.808 129.576,666.642 126.5,670.5C 125.167,669.167 123.833,669.167 122.5,670.5C 121.438,669.575 121.438,668.575 122.5,667.5C 129.975,662.34 138.309,659.34 147.5,658.5 Z"/></g>
<g><path style="opacity:1" fill="#fe6200" d="M 473.5,734.5 C 474.663,728.513 475.829,722.513 477,716.5C 478.29,714.208 479.957,712.208 482,710.5C 482.333,708.167 482.667,705.833 483,703.5C 485.864,701.849 487.03,699.349 486.5,696C 485.557,692.124 485.391,688.291 486,684.5C 484.089,684.745 482.089,684.745 480,684.5C 479,687.167 478,689.833 477,692.5C 475.43,689.367 475.097,686.033 476,682.5C 477.688,677.89 479.188,673.223 480.5,668.5C 481.243,669.908 482.077,671.241 483,672.5C 484.011,671.663 485.178,671.33 486.5,671.5C 486.337,673.857 486.503,676.19 487,678.5C 488.299,675.853 489.632,673.186 491,670.5C 490.593,666.224 491.093,661.891 492.5,657.5C 491.265,654.548 491.598,651.714 493.5,649C 493.066,646.432 492.4,643.932 491.5,641.5C 494.271,633.116 494.104,624.782 491,616.5C 490.617,617.056 490.117,617.389 489.5,617.5C 489.952,613.454 490.619,609.454 491.5,605.5C 492.458,605.047 493.292,604.381 494,603.5C 494.333,604.5 494.667,605.5 495,606.5C 495.667,624.167 495.667,641.833 495,659.5C 492.474,672.761 490.141,686.095 488,699.5C 484.566,706.46 481.9,713.794 480,721.5C 477.26,725.647 475.093,729.98 473.5,734.5 Z"/></g>
<g><path style="opacity:1" fill="#fb5f01" d="M 132.5,677.5 C 121.783,691.365 117.783,707.031 120.5,724.5C 119.093,718.711 118.093,712.711 117.5,706.5C 115.803,707.364 114.637,708.697 114,710.5C 113.667,709.5 113.333,708.5 113,707.5C 112.48,715.421 111.647,715.421 110.5,707.5C 109.503,714.468 109.17,721.468 109.5,728.5C 107.998,713.402 108.665,698.236 111.5,683C 111.257,679.997 109.59,678.83 106.5,679.5C 111.109,674.529 116.443,670.529 122.5,667.5C 121.438,668.575 121.438,669.575 122.5,670.5C 123.833,669.167 125.167,669.167 126.5,670.5C 129.576,666.642 133.576,664.808 138.5,665C 138.957,665.414 139.291,665.914 139.5,666.5C 137.995,667.842 137.328,669.508 137.5,671.5C 133.515,671.44 131.848,673.44 132.5,677.5 Z"/></g>
<g><path style="opacity:1" fill="#415062" d="M 262.5,692.5 C 258.724,693.825 254.557,694.491 250,694.5C 245.653,694.499 241.486,694.166 237.5,693.5C 245.918,693.802 254.252,693.469 262.5,692.5 Z"/></g>
<g><path style="opacity:1" fill="#db0901" d="M 518.5,672.5 C 524.412,681.754 530.745,690.754 537.5,699.5C 533.202,699.176 530.869,696.843 530.5,692.5C 526.36,689.039 523.526,684.706 522,679.5C 519.245,677.99 518.079,675.657 518.5,672.5 Z"/></g>
<g><path style="opacity:1" fill="#c54d29" d="M 188.5,702.5 C 187.5,702.5 186.5,702.5 185.5,702.5C 185.5,705.5 185.5,708.5 185.5,711.5C 184.188,706.985 184.188,702.318 185.5,697.5C 187.262,698.688 188.262,700.355 188.5,702.5 Z"/></g>
<g><path style="opacity:1" fill="#fc6e01" d="M 473.5,734.5 C 467.162,747.827 458.829,759.827 448.5,770.5C 447.817,768.824 446.483,768.157 444.5,768.5C 444.785,766.712 444.452,765.045 443.5,763.5C 440.712,764.96 438.545,764.293 437,761.5C 436.617,762.056 436.117,762.389 435.5,762.5C 457.616,729.515 472.949,693.515 481.5,654.5C 484.035,650.645 485.035,646.312 484.5,641.5C 486.172,633.473 487.838,625.473 489.5,617.5C 490.117,617.389 490.617,617.056 491,616.5C 494.104,624.782 494.271,633.116 491.5,641.5C 492.4,643.932 493.066,646.432 493.5,649C 491.598,651.714 491.265,654.548 492.5,657.5C 491.093,661.891 490.593,666.224 491,670.5C 489.632,673.186 488.299,675.853 487,678.5C 486.503,676.19 486.337,673.857 486.5,671.5C 485.178,671.33 484.011,671.663 483,672.5C 482.077,671.241 481.243,669.908 480.5,668.5C 479.188,673.223 477.688,677.89 476,682.5C 475.097,686.033 475.43,689.367 477,692.5C 478,689.833 479,687.167 480,684.5C 482.089,684.745 484.089,684.745 486,684.5C 485.391,688.291 485.557,692.124 486.5,696C 487.03,699.349 485.864,701.849 483,703.5C 482.667,705.833 482.333,708.167 482,710.5C 479.957,712.208 478.29,714.208 477,716.5C 475.829,722.513 474.663,728.513 473.5,734.5 Z"/></g>
<g><path style="opacity:1" fill="#d30802" d="M 542.5,706.5 C 546.812,710.454 550.145,715.12 552.5,720.5C 551.5,720.5 550.5,720.5 549.5,720.5C 549.657,719.127 549.49,717.793 549,716.5C 544.925,714.488 542.758,711.154 542.5,706.5 Z"/></g>
<g><path style="opacity:1" fill="#a50c03" d="M 83.5,714.5 C 83.7406,716.898 83.0739,718.898 81.5,720.5C 81.2594,718.102 81.9261,716.102 83.5,714.5 Z"/></g>
<g><path style="opacity:1" fill="#fa6f05" d="M 188.5,702.5 C 194.868,709.869 201.868,716.536 209.5,722.5C 210.171,723.847 210.171,725.014 209.5,726C 207.623,726.576 205.789,726.409 204,725.5C 202.72,725.613 201.887,726.28 201.5,727.5C 204.333,729.998 206.499,732.998 208,736.5C 208.617,737.449 208.451,738.282 207.5,739C 211.135,740.416 211.468,742.416 208.5,745C 210.037,746.11 210.703,747.61 210.5,749.5C 213.022,749.128 215.022,749.961 216.5,752C 216.167,752.333 215.833,752.667 215.5,753C 217.5,754.333 219.5,755.667 221.5,757C 220.207,757.49 218.873,757.657 217.5,757.5C 200.396,746.619 189.729,731.286 185.5,711.5C 185.5,708.5 185.5,705.5 185.5,702.5C 186.5,702.5 187.5,702.5 188.5,702.5 Z"/></g>
<g><path style="opacity:1" fill="#9f0e04" d="M 81.5,720.5 C 81.2766,724.162 80.2766,727.495 78.5,730.5C 78.7234,726.838 79.7234,723.505 81.5,720.5 Z"/></g>
<g><path style="opacity:1" fill="#fc7101" d="M 443.5,650.5 C 435.461,671.052 424.627,690.052 411,707.5C 397.287,724.389 380.787,737.723 361.5,747.5C 358.431,747.674 355.264,747.34 352,746.5C 349.866,747.085 348.366,748.418 347.5,750.5C 344.215,751.324 340.882,751.824 337.5,752C 336.167,753 336.167,754 337.5,755C 330.405,757.047 323.405,759.38 316.5,762C 302.449,762.838 288.449,764.004 274.5,765.5C 269.927,764.667 265.261,763.667 260.5,762.5C 259.548,760.955 259.215,759.288 259.5,757.5C 262.893,757.938 265.893,757.105 268.5,755C 266.5,754.667 264.5,754.333 262.5,754C 263.5,753.667 264.5,753.333 265.5,753C 276.194,752.788 286.86,752.288 297.5,751.5C 300.67,752.933 303.67,752.767 306.5,751C 303.952,748.102 300.786,746.602 297,746.5C 278.883,750.824 261.05,750.324 243.5,745C 244.5,744.667 245.5,744.333 246.5,744C 245.167,743.333 245.167,742.667 246.5,742C 250.432,741.872 253.432,742.706 255.5,744.5C 257.038,744.327 258.538,743.994 260,743.5C 267.759,744.895 275.593,745.562 283.5,745.5C 289.749,745.706 295.749,745.04 301.5,743.5C 358.505,735.351 401.005,706.017 429,655.5C 432.945,647.141 436.778,638.808 440.5,630.5C 441.79,629.942 442.623,628.942 443,627.5C 445.643,630.862 445.809,634.195 443.5,637.5C 445.082,639.866 444.749,641.866 442.5,643.5C 443.374,645.747 443.708,648.08 443.5,650.5 Z"/></g>
<g><path style="opacity:1" fill="#fc6601" d="M 209.5,722.5 C 237.356,740.943 268.022,747.943 301.5,743.5C 295.749,745.04 289.749,745.706 283.5,745.5C 275.593,745.562 267.759,744.895 260,743.5C 258.538,743.994 257.038,744.327 255.5,744.5C 253.432,742.706 250.432,741.872 246.5,742C 245.167,742.667 245.167,743.333 246.5,744C 245.5,744.333 244.5,744.667 243.5,745C 261.05,750.324 278.883,750.824 297,746.5C 300.786,746.602 303.952,748.102 306.5,751C 303.67,752.767 300.67,752.933 297.5,751.5C 286.86,752.288 276.194,752.788 265.5,753C 264.5,753.333 263.5,753.667 262.5,754C 264.5,754.333 266.5,754.667 268.5,755C 265.893,757.105 262.893,757.938 259.5,757.5C 259.215,759.288 259.548,760.955 260.5,762.5C 265.261,763.667 269.927,764.667 274.5,765.5C 269.467,765.328 264.467,765.161 259.5,765C 264.588,768.516 270.255,770.349 276.5,770.5C 277.826,771.642 278.826,772.976 279.5,774.5C 275.482,771.83 271.148,771.163 266.5,772.5C 268.153,774.121 270.153,775.288 272.5,776C 274.964,778.726 275.797,781.893 275,785.5C 270.384,787.471 267.218,786.138 265.5,781.5C 265.923,779.396 265.923,777.063 265.5,774.5C 265.167,774.167 264.833,773.833 264.5,773.5C 263.818,774.243 263.151,774.909 262.5,775.5C 260.365,773.631 257.698,772.964 254.5,773.5C 241.056,770.608 228.722,765.275 217.5,757.5C 218.873,757.657 220.207,757.49 221.5,757C 219.5,755.667 217.5,754.333 215.5,753C 215.833,752.667 216.167,752.333 216.5,752C 215.022,749.961 213.022,749.128 210.5,749.5C 210.703,747.61 210.037,746.11 208.5,745C 211.468,742.416 211.135,740.416 207.5,739C 208.451,738.282 208.617,737.449 208,736.5C 206.499,732.998 204.333,729.998 201.5,727.5C 201.887,726.28 202.72,725.613 204,725.5C 205.789,726.409 207.623,726.576 209.5,726C 210.171,725.014 210.171,723.847 209.5,722.5 Z"/></g>
<g><path style="opacity:1" fill="#9a0804" d="M 78.5,730.5 C 78.7204,735.1 78.0538,739.433 76.5,743.5C 76.2796,738.9 76.9462,734.567 78.5,730.5 Z"/></g>
<g><path style="opacity:1" fill="#ff6600" d="M 361.5,747.5 C 358.672,749.47 355.672,751.303 352.5,753C 327.231,763.001 301.231,767.168 274.5,765.5C 288.449,764.004 302.449,762.838 316.5,762C 323.405,759.38 330.405,757.047 337.5,755C 336.167,754 336.167,753 337.5,752C 340.882,751.824 344.215,751.324 347.5,750.5C 348.366,748.418 349.866,747.085 352,746.5C 355.264,747.34 358.431,747.674 361.5,747.5 Z"/></g>
<g><path style="opacity:1" fill="#ae0001" d="M 557.5,731.5 C 561.166,737.915 563.5,744.915 564.5,752.5C 565.948,762.773 566.614,773.107 566.5,783.5C 566.747,786.939 566.414,790.272 565.5,793.5C 565.167,793.5 564.833,793.5 564.5,793.5C 564.824,777.504 563.991,761.504 562,745.5C 559.813,741.08 558.313,736.413 557.5,731.5 Z"/></g>
<g><path style="opacity:1" fill="#f67804" d="M 448.5,770.5 C 448.167,771.5 447.5,772.167 446.5,772.5C 443.474,770.792 440.64,768.792 438,766.5C 436.989,767.337 435.822,767.67 434.5,767.5C 432.503,770.25 431.003,773.25 430,776.5C 431.067,775.809 432.234,775.309 433.5,775C 434.147,773.391 434.98,771.891 436,770.5C 443.817,771.449 444.317,773.783 437.5,777.5C 436.571,778.689 436.238,780.022 436.5,781.5C 432.652,783.007 429.485,782.007 427,778.5C 425.921,780.394 424.587,780.727 423,779.5C 420.31,782.533 417.977,785.867 416,789.5C 415.586,789.043 415.086,788.709 414.5,788.5C 412.028,789.96 410.361,791.96 409.5,794.5C 409.631,793.761 409.464,793.094 409,792.5C 408.329,793.252 407.496,793.586 406.5,793.5C 416.449,783.547 426.116,773.213 435.5,762.5C 436.117,762.389 436.617,762.056 437,761.5C 438.545,764.293 440.712,764.96 443.5,763.5C 444.452,765.045 444.785,766.712 444.5,768.5C 446.483,768.157 447.817,768.824 448.5,770.5 Z"/></g>
<g><path style="opacity:1" fill="#5d0000" d="M 564.5,752.5 C 567.345,762.719 568.012,773.052 566.5,783.5C 566.614,773.107 565.948,762.773 564.5,752.5 Z"/></g>
<g><path style="opacity:1" fill="#fd7000" d="M 120.5,724.5 C 128.291,750.463 144.958,768.296 170.5,778C 191.74,784.593 213.406,786.26 235.5,783C 241.994,781.628 248.327,779.794 254.5,777.5C 257.341,777.44 260.007,776.774 262.5,775.5C 263.151,774.909 263.818,774.243 264.5,773.5C 264.833,773.833 265.167,774.167 265.5,774.5C 265.923,777.063 265.923,779.396 265.5,781.5C 267.218,786.138 270.384,787.471 275,785.5C 275.797,781.893 274.964,778.726 272.5,776C 270.153,775.288 268.153,774.121 266.5,772.5C 271.148,771.163 275.482,771.83 279.5,774.5C 280.338,774.842 280.672,775.508 280.5,776.5C 281.822,778.311 282.322,780.311 282,782.5C 279.31,784.356 277.144,786.689 275.5,789.5C 270.406,791.212 265.406,793.212 260.5,795.5C 259.387,793.969 257.887,792.969 256,792.5C 248.646,792.129 241.812,790.962 235.5,789C 224.913,789.83 214.246,790.663 203.5,791.5C 200.871,790.505 198.704,790.839 197,792.5C 193.59,790.164 189.757,788.83 185.5,788.5C 188.062,787.359 190.728,786.526 193.5,786C 190.964,785.661 188.464,785.161 186,784.5C 182.702,786.067 179.202,786.9 175.5,787C 178.001,788.418 177.668,789.418 174.5,790C 176.5,790.333 178.5,790.667 180.5,791C 183.716,793.959 187.383,795.126 191.5,794.5C 196.74,795.82 202.074,796.487 207.5,796.5C 207.5,795.5 207.5,794.5 207.5,793.5C 214.521,793.624 221.521,793.29 228.5,792.5C 236.479,792.944 244.146,794.444 251.5,797C 248.931,800.923 245.264,802.423 240.5,801.5C 236.109,801.281 231.942,800.281 228,798.5C 226.601,799.227 225.101,799.727 223.5,800C 224.833,801 224.833,802 223.5,803C 221.167,803.333 218.833,803.667 216.5,804C 207.806,804.048 199.14,803.548 190.5,802.5C 181.442,799.984 172.442,797.151 163.5,794C 135.435,780.437 117.435,758.604 109.5,728.5C 109.17,721.468 109.503,714.468 110.5,707.5C 111.647,715.421 112.48,715.421 113,707.5C 113.333,708.5 113.667,709.5 114,710.5C 114.637,708.697 115.803,707.364 117.5,706.5C 118.093,712.711 119.093,718.711 120.5,724.5 Z"/></g>
<g><path style="opacity:1" fill="#bc370b" d="M 254.5,773.5 C 257.698,772.964 260.365,773.631 262.5,775.5C 260.007,776.774 257.341,777.44 254.5,777.5C 255.808,776.768 257.142,775.934 258.5,775C 256.942,774.79 255.609,774.29 254.5,773.5 Z"/></g>
<g><path style="opacity:1" fill="#ff6500" d="M 280.5,776.5 C 284.071,778.642 285.071,781.642 283.5,785.5C 279.833,788.333 276.167,791.167 272.5,794C 250.015,804.626 226.348,808.293 201.5,805C 197.57,804.758 193.903,803.925 190.5,802.5C 199.14,803.548 207.806,804.048 216.5,804C 218.833,803.667 221.167,803.333 223.5,803C 224.833,802 224.833,801 223.5,800C 225.101,799.727 226.601,799.227 228,798.5C 231.942,800.281 236.109,801.281 240.5,801.5C 245.264,802.423 248.931,800.923 251.5,797C 244.146,794.444 236.479,792.944 228.5,792.5C 221.521,793.29 214.521,793.624 207.5,793.5C 207.5,794.5 207.5,795.5 207.5,796.5C 202.074,796.487 196.74,795.82 191.5,794.5C 187.383,795.126 183.716,793.959 180.5,791C 178.5,790.667 176.5,790.333 174.5,790C 177.668,789.418 178.001,788.418 175.5,787C 179.202,786.9 182.702,786.067 186,784.5C 188.464,785.161 190.964,785.661 193.5,786C 190.728,786.526 188.062,787.359 185.5,788.5C 189.757,788.83 193.59,790.164 197,792.5C 198.704,790.839 200.871,790.505 203.5,791.5C 214.246,790.663 224.913,789.83 235.5,789C 241.812,790.962 248.646,792.129 256,792.5C 257.887,792.969 259.387,793.969 260.5,795.5C 265.406,793.212 270.406,791.212 275.5,789.5C 277.144,786.689 279.31,784.356 282,782.5C 282.322,780.311 281.822,778.311 280.5,776.5 Z"/></g>
<g><path style="opacity:1" fill="#ff7000" d="M 446.5,772.5 C 443.466,777.046 439.799,781.213 435.5,785C 419.059,799.389 400.392,809.889 379.5,816.5C 379.414,815.504 379.748,814.671 380.5,814C 381.833,813.667 383.167,813.333 384.5,813C 393.012,806.778 401.345,800.611 409.5,794.5C 410.361,791.96 412.028,789.96 414.5,788.5C 415.086,788.709 415.586,789.043 416,789.5C 417.977,785.867 420.31,782.533 423,779.5C 424.587,780.727 425.921,780.394 427,778.5C 429.485,782.007 432.652,783.007 436.5,781.5C 436.238,780.022 436.571,778.689 437.5,777.5C 444.317,773.783 443.817,771.449 436,770.5C 434.98,771.891 434.147,773.391 433.5,775C 432.234,775.309 431.067,775.809 430,776.5C 431.003,773.25 432.503,770.25 434.5,767.5C 435.822,767.67 436.989,767.337 438,766.5C 440.64,768.792 443.474,770.792 446.5,772.5 Z"/></g>
<g><path style="opacity:1" fill="#890704" d="M 330.5,792.5 C 330.59,795.152 329.924,797.485 328.5,799.5C 328.41,796.848 329.076,794.515 330.5,792.5 Z"/></g>
<g><path style="opacity:1" fill="#710001" d="M 564.5,793.5 C 564.833,793.5 565.167,793.5 565.5,793.5C 565.192,797.36 564.525,801.026 563.5,804.5C 563.423,800.785 563.756,797.119 564.5,793.5 Z"/></g>
<g><path style="opacity:1" fill="#f2880b" d="M 409.5,794.5 C 401.345,800.611 393.012,806.778 384.5,813C 383.167,813.333 381.833,813.667 380.5,814C 379.748,814.671 379.414,815.504 379.5,816.5C 377.372,817.629 375.039,817.796 372.5,817C 373.381,816.292 374.047,815.458 374.5,814.5C 385.851,808.495 396.518,801.495 406.5,793.5C 407.496,793.586 408.329,793.252 409,792.5C 409.464,793.094 409.631,793.761 409.5,794.5 Z"/></g>
<g><path style="opacity:1" fill="#d80000" d="M 556.5,730.5 C 557.167,730.5 557.5,730.833 557.5,731.5C 558.313,736.413 559.813,741.08 562,745.5C 563.991,761.504 564.824,777.504 564.5,793.5C 563.756,797.119 563.423,800.785 563.5,804.5C 561.745,811.103 559.412,817.436 556.5,823.5C 554.755,825.033 553.755,827.033 553.5,829.5C 549.555,836.234 544.888,842.568 539.5,848.5C 537.857,848.48 536.524,849.147 535.5,850.5C 534.264,849.754 532.93,849.421 531.5,849.5C 531.5,850.5 531.5,851.5 531.5,852.5C 529.876,852.36 528.71,853.027 528,854.5C 527.82,856.488 527.986,858.488 528.5,860.5C 527.5,860.5 526.5,860.5 525.5,860.5C 525.5,861.833 525.5,863.167 525.5,864.5C 521.102,869.901 516.102,874.567 510.5,878.5C 508.368,878.554 507.035,879.554 506.5,881.5C 504.147,882.34 502.147,883.674 500.5,885.5C 488.172,894.265 474.839,901.265 460.5,906.5C 457.728,906.759 455.395,907.759 453.5,909.5C 438.439,914.432 423.106,918.099 407.5,920.5C 401.845,920.933 396.179,921.266 390.5,921.5C 383.711,921.311 377.044,920.645 370.5,919.5C 363.5,920.833 356.5,920.833 349.5,919.5C 346.5,919.667 343.5,919.833 340.5,920C 341.833,920.333 343.167,920.667 344.5,921C 338.843,921.499 333.176,921.666 327.5,921.5C 320.826,921.287 314.159,920.954 307.5,920.5C 306.833,920.5 306.167,920.5 305.5,920.5C 303.485,919.076 301.152,918.41 298.5,918.5C 292.431,917.443 286.431,916.11 280.5,914.5C 278.485,913.076 276.152,912.41 273.5,912.5C 269.507,910.983 266.174,908.483 263.5,905C 261.062,904.318 258.895,904.818 257,906.5C 255.234,905.767 253.401,905.433 251.5,905.5C 251.5,904.5 251.5,903.5 251.5,902.5C 247.63,901.201 243.63,900.534 239.5,900.5C 239.5,899.5 239.5,898.5 239.5,897.5C 240.978,897.762 242.311,897.429 243.5,896.5C 242.667,896.167 241.833,895.833 241,895.5C 239,896.167 237,896.833 235,897.5C 232.863,896.923 230.696,896.59 228.5,896.5C 226.403,894.593 224.069,892.759 221.5,891C 223.421,889.759 223.754,888.259 222.5,886.5C 219.465,888.301 216.131,888.968 212.5,888.5C 212.5,887.5 212.5,886.5 212.5,885.5C 208.743,885.698 205.743,884.365 203.5,881.5C 205.748,880.676 205.914,879.676 204,878.5C 201.329,881.414 199.163,881.081 197.5,877.5C 198.729,876.719 200.062,876.219 201.5,876C 199.519,875.395 199.185,874.395 200.5,873C 199.464,871.383 198.297,871.216 197,872.5C 195.974,869.307 193.808,867.974 190.5,868.5C 190.5,869.5 190.5,870.5 190.5,871.5C 187.161,871.22 184.494,869.72 182.5,867C 184.5,866.667 186.5,866.333 188.5,866C 187.748,865.329 187.414,864.496 187.5,863.5C 196.331,866.501 204.997,870.001 213.5,874C 257.63,888.756 302.963,894.756 349.5,892C 392.453,889.34 432.786,878.007 470.5,858C 487.799,847.37 503.299,834.537 517,819.5C 539.952,794.255 553.119,764.589 556.5,730.5 Z"/></g>
<g><path style="opacity:1" fill="#ab1003" d="M 314.5,822.5 C 312.833,826.167 310.167,828.833 306.5,830.5C 308.833,827.5 311.5,824.833 314.5,822.5 Z"/></g>
<g><path style="opacity:1" fill="#500201" d="M 556.5,823.5 C 556.245,825.967 555.245,827.967 553.5,829.5C 553.755,827.033 554.755,825.033 556.5,823.5 Z"/></g>
<g><path style="opacity:1" fill="#bc0603" d="M 166.5,825.5 C 173.325,827.772 180.325,829.439 187.5,830.5C 188.243,831.182 188.909,831.849 189.5,832.5C 181.313,831.542 173.646,829.208 166.5,825.5 Z"/></g>
<g><path style="opacity:1" fill="#760811" d="M 143.5,832.5 C 142.167,832.5 141.5,833.167 141.5,834.5C 139.946,833.086 138.612,831.419 137.5,829.5C 137.833,829.167 138.167,828.833 138.5,828.5C 140.21,829.887 141.877,831.221 143.5,832.5 Z"/></g>
<g><path style="opacity:1" fill="#9b0004" d="M 145.5,838.5 C 149.115,840.451 152.448,842.785 155.5,845.5C 157.48,847.591 159.814,849.424 162.5,851C 161.419,852.711 161.752,854.211 163.5,855.5C 156.89,850.559 150.89,844.892 145.5,838.5 Z"/></g>
<g><path style="opacity:1" fill="#990304" d="M 275.5,849.5 C 272.495,851.277 269.162,852.277 265.5,852.5C 268.505,850.723 271.838,849.723 275.5,849.5 Z"/></g>
<g><path style="opacity:1" fill="#9d0502" d="M 265.5,852.5 C 263.485,853.924 261.152,854.59 258.5,854.5C 260.515,853.076 262.848,852.41 265.5,852.5 Z"/></g>
<g><path style="opacity:1" fill="#c70000" d="M 539.5,848.5 C 535.845,854.675 531.178,860.008 525.5,864.5C 525.5,863.167 525.5,861.833 525.5,860.5C 526.5,860.5 527.5,860.5 528.5,860.5C 527.986,858.488 527.82,856.488 528,854.5C 528.71,853.027 529.876,852.36 531.5,852.5C 531.5,851.5 531.5,850.5 531.5,849.5C 532.93,849.421 534.264,849.754 535.5,850.5C 536.524,849.147 537.857,848.48 539.5,848.5 Z"/></g>
<g><path style="opacity:1" fill="#530301" d="M 195.5,853.5 C 198.152,853.41 200.485,854.076 202.5,855.5C 199.848,855.59 197.515,854.924 195.5,853.5 Z"/></g>
<g><path style="opacity:1" fill="#760502" d="M 258.5,854.5 C 254.081,855.972 249.414,856.638 244.5,856.5C 248.943,855.199 253.609,854.532 258.5,854.5 Z"/></g>
<g><path style="opacity:1" fill="#c60001" d="M 155.5,845.5 C 159.26,846.248 162.594,847.914 165.5,850.5C 166.231,852.401 166.231,854.401 165.5,856.5C 166.873,856.657 168.207,856.49 169.5,856C 168.289,855.107 168.289,854.274 169.5,853.5C 175.85,856.338 181.85,859.672 187.5,863.5C 187.414,864.496 187.748,865.329 188.5,866C 186.5,866.333 184.5,866.667 182.5,867C 184.494,869.72 187.161,871.22 190.5,871.5C 190.5,870.5 190.5,869.5 190.5,868.5C 193.808,867.974 195.974,869.307 197,872.5C 198.297,871.216 199.464,871.383 200.5,873C 199.185,874.395 199.519,875.395 201.5,876C 200.062,876.219 198.729,876.719 197.5,877.5C 199.163,881.081 201.329,881.414 204,878.5C 205.914,879.676 205.748,880.676 203.5,881.5C 205.743,884.365 208.743,885.698 212.5,885.5C 212.5,886.5 212.5,887.5 212.5,888.5C 194.293,880.234 177.96,869.234 163.5,855.5C 161.752,854.211 161.419,852.711 162.5,851C 159.814,849.424 157.48,847.591 155.5,845.5 Z"/></g>
<g><path style="opacity:1" fill="#a90002" d="M 146.5,872.5 C 149.5,874.833 152.167,877.5 154.5,880.5C 152.883,879.962 151.216,879.629 149.5,879.5C 148.957,876.962 147.957,874.628 146.5,872.5 Z"/></g>
<g><path style="opacity:1" fill="#670001" d="M 510.5,878.5 C 509.564,879.974 508.23,880.974 506.5,881.5C 507.035,879.554 508.368,878.554 510.5,878.5 Z"/></g>
<g><path style="opacity:1" fill="#770005" d="M 134.5,881.5 C 135.167,881.5 135.833,881.5 136.5,881.5C 138.5,883.833 140.5,886.167 142.5,888.5C 139.236,886.906 136.569,884.573 134.5,881.5 Z"/></g>
<g><path style="opacity:1" fill="#5e0001" d="M 506.5,881.5 C 505.198,883.822 503.198,885.155 500.5,885.5C 502.147,883.674 504.147,882.34 506.5,881.5 Z"/></g>
<g><path style="opacity:1" fill="#830003" d="M 142.5,888.5 C 144.749,889.08 146.415,890.413 147.5,892.5C 145.251,891.92 143.585,890.587 142.5,888.5 Z"/></g>
<g><path style="opacity:1" fill="#a90002" d="M 228.5,896.5 C 222.849,894.341 217.516,891.674 212.5,888.5C 216.131,888.968 219.465,888.301 222.5,886.5C 223.754,888.259 223.421,889.759 221.5,891C 224.069,892.759 226.403,894.593 228.5,896.5 Z"/></g>
<g><path style="opacity:1" fill="#eb0000" d="M 133.5,856.5 C 137.823,861.794 142.156,867.127 146.5,872.5C 147.957,874.628 148.957,876.962 149.5,879.5C 151.216,879.629 152.883,879.962 154.5,880.5C 155.783,882.606 156.616,884.94 157,887.5C 160.397,886.461 162.23,887.794 162.5,891.5C 165.91,891.384 167.244,893.05 166.5,896.5C 163.216,895.146 160.216,895.48 157.5,897.5C 155.827,895.914 153.827,895.247 151.5,895.5C 149.596,895.262 148.262,894.262 147.5,892.5C 146.415,890.413 144.749,889.08 142.5,888.5C 140.5,886.167 138.5,883.833 136.5,881.5C 137.5,881.5 138.5,881.5 139.5,881.5C 139.864,877.283 140.698,873.283 142,869.5C 140.413,868.273 139.079,868.606 138,870.5C 138.155,868.189 138.155,865.856 138,863.5C 136.644,862.62 135.144,862.286 133.5,862.5C 133.5,860.5 133.5,858.5 133.5,856.5 Z"/></g>
<g><path style="opacity:1" fill="#aa0002" d="M 251.5,905.5 C 243.392,903.467 235.726,900.467 228.5,896.5C 230.696,896.59 232.863,896.923 235,897.5C 237,896.833 239,896.167 241,895.5C 241.833,895.833 242.667,896.167 243.5,896.5C 242.311,897.429 240.978,897.762 239.5,897.5C 239.5,898.5 239.5,899.5 239.5,900.5C 243.63,900.534 247.63,901.201 251.5,902.5C 251.5,903.5 251.5,904.5 251.5,905.5 Z"/></g>
<g><path style="opacity:1" fill="#740004" d="M 152.5,896.5 C 154.749,897.08 156.415,898.413 157.5,900.5C 155.251,899.92 153.585,898.587 152.5,896.5 Z"/></g>
<g><path style="opacity:1" fill="#e50000" d="M 172.5,908.5 C 169.965,905.413 166.632,903.746 162.5,903.5C 160.752,901.84 160.252,899.84 161,897.5C 163.852,898.865 166.518,898.531 169,896.5C 170.28,896.613 171.113,897.28 171.5,898.5C 169.995,899.842 169.328,901.508 169.5,903.5C 170.5,903.5 171.5,903.5 172.5,903.5C 172.351,902.448 172.517,901.448 173,900.5C 183.818,905.019 183.651,907.686 172.5,908.5 Z"/></g>
<g><path style="opacity:1" fill="#a50004" d="M 162.5,903.5 C 166.632,903.746 169.965,905.413 172.5,908.5C 174.743,909.132 176.409,910.466 177.5,912.5C 171.995,910.251 166.995,907.251 162.5,903.5 Z"/></g>
<g><path style="opacity:1" fill="#a90002" d="M 273.5,912.5 C 270.659,912.44 267.993,911.774 265.5,910.5C 263.485,909.076 261.152,908.41 258.5,908.5C 255.843,908.065 253.509,907.065 251.5,905.5C 253.401,905.433 255.234,905.767 257,906.5C 258.895,904.818 261.062,904.318 263.5,905C 266.174,908.483 269.507,910.983 273.5,912.5 Z"/></g>
<g><path style="opacity:1" fill="#ce0001" d="M 154.5,880.5 C 163.872,889.207 173.538,897.541 183.5,905.5C 184.038,907.117 184.371,908.784 184.5,910.5C 187.969,909.887 189.969,911.221 190.5,914.5C 194.805,914.476 197.472,916.476 198.5,920.5C 194.728,918.744 190.728,917.744 186.5,917.5C 183.008,916.59 180.008,914.924 177.5,912.5C 176.409,910.466 174.743,909.132 172.5,908.5C 183.651,907.686 183.818,905.019 173,900.5C 172.517,901.448 172.351,902.448 172.5,903.5C 171.5,903.5 170.5,903.5 169.5,903.5C 169.328,901.508 169.995,899.842 171.5,898.5C 171.113,897.28 170.28,896.613 169,896.5C 166.518,898.531 163.852,898.865 161,897.5C 160.252,899.84 160.752,901.84 162.5,903.5C 160.566,902.89 158.899,901.89 157.5,900.5C 156.415,898.413 154.749,897.08 152.5,896.5C 151.833,896.5 151.5,896.167 151.5,895.5C 153.827,895.247 155.827,895.914 157.5,897.5C 160.216,895.48 163.216,895.146 166.5,896.5C 167.244,893.05 165.91,891.384 162.5,891.5C 162.23,887.794 160.397,886.461 157,887.5C 156.616,884.94 155.783,882.606 154.5,880.5 Z"/></g>
<g><path style="opacity:1" fill="#620101" d="M 460.5,906.5 C 458.605,908.241 456.272,909.241 453.5,909.5C 455.395,907.759 457.728,906.759 460.5,906.5 Z"/></g>
<g><path style="opacity:1" fill="#580100" d="M 258.5,908.5 C 261.152,908.41 263.485,909.076 265.5,910.5C 262.848,910.59 260.515,909.924 258.5,908.5 Z"/></g>
<g><path style="opacity:1" fill="#760001" d="M 273.5,912.5 C 276.152,912.41 278.485,913.076 280.5,914.5C 277.848,914.59 275.515,913.924 273.5,912.5 Z"/></g>
<g><path style="opacity:1" fill="#550101" d="M 298.5,918.5 C 301.152,918.41 303.485,919.076 305.5,920.5C 302.848,920.59 300.515,919.924 298.5,918.5 Z"/></g>
<g><path style="opacity:1" fill="#cd0000" d="M 407.5,920.5 C 398.285,922.728 388.951,924.061 379.5,924.5C 361.924,925.044 344.591,924.044 327.5,921.5C 333.176,921.666 338.843,921.499 344.5,921C 343.167,920.667 341.833,920.333 340.5,920C 343.5,919.833 346.5,919.667 349.5,919.5C 356.5,920.833 363.5,920.833 370.5,919.5C 377.044,920.645 383.711,921.311 390.5,921.5C 396.179,921.266 401.845,920.933 407.5,920.5 Z"/></g>
<g><path style="opacity:1" fill="#7b0002" d="M 307.5,920.5 C 314.159,920.954 320.826,921.287 327.5,921.5C 344.591,924.044 361.924,925.044 379.5,924.5C 355.338,926.393 331.338,925.06 307.5,920.5 Z"/></g>
<g><path style="opacity:1" fill="#b40004" d="M 183.5,905.5 C 194.738,913.613 206.405,920.947 218.5,927.5C 218.5,928.833 217.833,929.5 216.5,929.5C 205.526,927.606 195.526,923.606 186.5,917.5C 190.728,917.744 194.728,918.744 198.5,920.5C 197.472,916.476 194.805,914.476 190.5,914.5C 189.969,911.221 187.969,909.887 184.5,910.5C 184.371,908.784 184.038,907.117 183.5,905.5 Z"/></g>
<g><path style="opacity:1" fill="#620217" d="M 218.5,927.5 C 220.636,928.403 222.636,929.569 224.5,931C 221.518,931.703 218.851,931.203 216.5,929.5C 217.833,929.5 218.5,928.833 218.5,927.5 Z"/></g>
</svg>
